<?xml version="1.0" standalone="no"?>
<!DOCTYPE svg PUBLIC "-//W3C//DTD SVG 20010904//EN"
 "http://www.w3.org/TR/2001/REC-SVG-20010904/DTD/svg10.dtd">
<svg version="1.0" xmlns="http://www.w3.org/2000/svg"
 width="1216.000000pt" height="1280.000000pt" viewBox="0 0 1216.000000 1280.000000"
 preserveAspectRatio="xMidYMid meet">
<metadata>
Created by potrace 1.13, written by Peter Selinger 2001-2015
</metadata>
<g transform="translate(0.000000,1280.000000) scale(0.100000,-0.100000)"
fill="#000000" stroke="none">
<path d="M640 11795 l0 -1005 310 -2 310 -3 0 -1987 0 -1988 185 0 185 0 0
1990 0 1990 340 0 c277 0 346 -3 368 -14 15 -8 621 -609 1347 -1335 l1320
-1321 3 -4060 2 -4060 1390 0 1390 0 0 4040 c0 3367 2 4046 13 4073 17 39
2634 2646 2674 2664 21 9 233 12 856 13 l827 0 0 1005 0 1005 -5760 0 -5760 0
0 -1005z m7820 -1013 c0 -9 -653 -662 -663 -662 -8 0 -9 649 -1 662 7 10 664
11 664 0z m-3450 -339 l0 -338 -92 91 c-51 50 -205 202 -343 337 l-250 246
343 1 342 0 0 -337z"/>
<path d="M1080 6575 l0 -135 380 0 380 0 0 135 0 135 -380 0 -380 0 0 -135z"/>
<path d="M1080 6215 l0 -135 380 0 380 0 0 135 0 135 -380 0 -380 0 0 -135z"/>
<path d="M1077 5983 c-4 -3 -7 -61 -7 -129 l0 -122 -72 -27 c-150 -56 -220
-88 -298 -135 -244 -146 -418 -319 -513 -507 -69 -134 -89 -218 -153 -612
l-38 -234 87 -256 c48 -141 103 -312 122 -381 88 -308 207 -627 270 -722 14
-21 40 -47 58 -58 38 -24 107 -35 140 -24 l25 9 -60 165 c-179 494 -332 932
-344 980 -19 78 -17 189 6 307 21 109 18 134 -19 167 -27 25 -27 33 10 151 43
140 80 201 226 371 147 170 232 245 342 303 183 95 456 158 636 147 369 -21
659 -156 858 -396 44 -52 104 -125 135 -163 32 -37 69 -89 85 -115 27 -47 87
-221 87 -253 0 -10 -12 -32 -27 -50 -33 -39 -34 -67 -9 -204 26 -141 19 -233
-27 -360 -19 -55 -112 -314 -206 -575 -126 -350 -167 -476 -158 -482 39 -25
141 3 185 50 73 77 186 369 311 802 27 96 78 256 112 355 75 219 80 261 50
452 -12 76 -29 183 -37 238 -40 256 -151 479 -329 664 -149 154 -331 266 -572
351 l-108 38 -3 131 -3 131 -378 0 c-208 0 -381 -3 -384 -7z"/>
<path d="M553 4078 c-109 -84 -118 -91 -137 -121 -24 -36 -22 -43 70 -299 42
-117 134 -375 205 -572 71 -198 136 -370 144 -382 44 -67 247 -18 353 85 50
49 57 71 49 165 -5 61 -27 124 -150 436 -225 570 -229 578 -290 636 -129 125
-144 128 -244 52z"/>
<path d="M2222 4115 c-50 -22 -153 -132 -189 -200 -18 -33 -75 -171 -128 -305
-211 -535 -243 -640 -224 -728 14 -66 55 -112 136 -155 133 -69 245 -71 276
-4 14 30 69 181 318 875 60 167 109 313 109 325 0 37 -181 192 -236 202 -16 3
-44 -2 -62 -10z"/>
</g>
</svg>
